<svg xmlns="http://www.w3.org/2000/svg" xmlns:xlink="http://www.w3.org/1999/xlink" xmlns:lucid="lucid" width="1452.46" height="500"><g transform="translate(-133.53899594421887 -47.99999999994924)" lucid:page-tab-id="0_0"><path d="M0 0h1760v1360H0z" fill="#fff"/><path d="M453.15 76a8 8 0 0 1 8-8h836.75a8 8 0 0 1 8 8v25.16a8 8 0 0 1-8 8H461.15a8 8 0 0 1-8-8z" stroke="#000" stroke-opacity="0" stroke-width="2" fill="#fff" fill-opacity="0"/><use xlink:href="#a" transform="matrix(1,0,0,1,457.1465527853429,71.99999999994924) translate(343.79271604938276 25.782777777777778)"/><path d="M628.64 107.8h505.86M628.66 107.8h-1.02M1134.47 107.8h1.03" stroke="#a9afb8" stroke-width="2" fill="none"/><path d="M453.15 117.16a8 8 0 0 1 8-8h837.7a8 8 0 0 1 8 8V120a8 8 0 0 1-8 8h-837.7a8 8 0 0 1-8-8z" stroke="#000" stroke-opacity="0" stroke-width="2" fill="#fff" fill-opacity="0"/><use xlink:href="#b" transform="matrix(1,0,0,1,457.1465527853434,113.15522395684805) translate(340.3320679012346 14.917037037037037)"/><use xlink:href="#c" transform="matrix(1,0,0,1,457.1465527853434,113.15522395684805) translate(381.7595370370371 14.917037037037037)"/><use xlink:href="#d" transform="matrix(1,0,0,1,457.1465527853434,113.15522395684805) translate(394.2090226337449 14.917037037037037)"/><use xlink:href="#e" transform="matrix(1,0,0,1,457.1465527853434,113.15522395684805) translate(452.8023353909465 14.917037037037037)"/><use xlink:href="#f" transform="matrix(1,0,0,1,457.1465527853434,113.15522395684805) translate(478.2961625514404 14.917037037037037)"/><path d="M1200 396a8 8 0 0 1 8-8h264a8 8 0 0 1 8 8v120a8 8 0 0 1-8 8h-264a8 8 0 0 1-8-8z" fill="#fff"/><path d="M1200 396a8 8 0 0 1 8-8h264a8 8 0 0 1 8 8v120a8 8 0 0 1-8 8h-264a8 8 0 0 1-8-8zM1200 428h280M1260 428v96M1301.55 428v96" stroke="#3a414a" fill="none"/><use xlink:href="#g" transform="matrix(1,0,0,1,1210,388) translate(101.05 23.6)"/><use xlink:href="#h" transform="matrix(1,0,0,1,1205,430.5) translate(13 17.1)"/><use xlink:href="#i" transform="matrix(1,0,0,1,1265,430.5) translate(9.025 17.1)"/><use xlink:href="#j" transform="matrix(1,0,0,1,1306.5516861647607,430.5) translate(44.574999999999996 17.1)"/><use xlink:href="#k" transform="matrix(1,0,0,1,1265,462.5) translate(6.050000000000001 17.1)"/><use xlink:href="#l" transform="matrix(1,0,0,1,1306.5516861647607,462.5) translate(15.325000000000003 17.1)"/><use xlink:href="#m" transform="matrix(1,0,0,1,1265,494.5) translate(6.525 17.1)"/><use xlink:href="#n" transform="matrix(1,0,0,1,1306.5516861647607,494.5) translate(38.599999999999994 17.1)"/><path d="M720 208a8 8 0 0 1 8-8h344a8 8 0 0 1 8 8v312a8 8 0 0 1-8 8H728a8 8 0 0 1-8-8z" fill="#fff"/><path d="M720 208a8 8 0 0 1 8-8h344a8 8 0 0 1 8 8v312a8 8 0 0 1-8 8H728a8 8 0 0 1-8-8zM720 240h360M780 240v288M938.52 240v288" stroke="#3a414a" fill="none"/><use xlink:href="#o" transform="matrix(1,0,0,1,730,200) translate(136.025 23.6)"/><use xlink:href="#h" transform="matrix(1,0,0,1,725,242.5) translate(13 17.1)"/><use xlink:href="#i" transform="matrix(1,0,0,1,785,242.5) translate(67.525 17.1)"/><use xlink:href="#j" transform="matrix(1,0,0,1,943.5231290924362,242.5) translate(26.074999999999996 17.1)"/><use xlink:href="#p" transform="matrix(1,0,0,1,785,274.5) translate(51.025 17.1)"/><use xlink:href="#q" transform="matrix(1,0,0,1,943.5231290924362,274.5) translate(22.525 17.1)"/><use xlink:href="#r" transform="matrix(1,0,0,1,785,306.5) translate(60.55 17.1)"/><use xlink:href="#s" transform="matrix(1,0,0,1,943.5231290924362,306.5) translate(6.824999999999996 17.1)"/><use xlink:href="#t" transform="matrix(1,0,0,1,785,338.5) translate(16.575000000000003 17.1)"/><use xlink:href="#u" transform="matrix(1,0,0,1,943.5231290924362,338.5) translate(37.724999999999994 17.1)"/><use xlink:href="#v" transform="matrix(1,0,0,1,785,370.5) translate(55.05 17.1)"/><use xlink:href="#u" transform="matrix(1,0,0,1,943.5231290924362,370.5) translate(37.724999999999994 17.1)"/><use xlink:href="#w" transform="matrix(1,0,0,1,785,402.5) translate(24.6 17.1)"/><use xlink:href="#u" transform="matrix(1,0,0,1,943.5231290924362,402.5) translate(37.724999999999994 17.1)"/><use xlink:href="#x" transform="matrix(1,0,0,1,785,434.5) translate(31.074999999999996 17.1)"/><use xlink:href="#y" transform="matrix(1,0,0,1,943.5231290924362,434.5) translate(43.05 17.1)"/><use xlink:href="#z" transform="matrix(1,0,0,1,725,466.5) translate(13.524999999999999 17.1)"/><use xlink:href="#A" transform="matrix(1,0,0,1,785,466.5) translate(3.5999999999999943 17.1)"/><use xlink:href="#B" transform="matrix(1,0,0,1,943.5231290924362,466.5) translate(26.074999999999996 17.1)"/><use xlink:href="#z" transform="matrix(1,0,0,1,725,498.5) translate(13.524999999999999 17.1)"/><use xlink:href="#C" transform="matrix(1,0,0,1,785,498.5) translate(13.624999999999993 17.1)"/><use xlink:href="#B" transform="matrix(1,0,0,1,943.5231290924362,498.5) translate(26.074999999999996 17.1)"/><path d="M220 208a8 8 0 0 1 8-8h304a8 8 0 0 1 8 8v120a8 8 0 0 1-8 8H228a8 8 0 0 1-8-8z" fill="#fff"/><path d="M220 208a8 8 0 0 1 8-8h304a8 8 0 0 1 8 8v120a8 8 0 0 1-8 8H228a8 8 0 0 1-8-8zM220 240h320M280 240v96M387.92 240v96" stroke="#3a414a" fill="none"/><use xlink:href="#D" transform="matrix(1,0,0,1,230,200) translate(108.55 23.6)"/><use xlink:href="#h" transform="matrix(1,0,0,1,225,242.5) translate(13 17.1)"/><use xlink:href="#i" transform="matrix(1,0,0,1,285,242.5) translate(42.025 17.1)"/><use xlink:href="#j" transform="matrix(1,0,0,1,392.92482468394206,242.5) translate(31.574999999999996 17.1)"/><use xlink:href="#r" transform="matrix(1,0,0,1,285,274.5) translate(35.05 17.1)"/><use xlink:href="#s" transform="matrix(1,0,0,1,392.92482468394206,274.5) translate(12.324999999999996 17.1)"/><use xlink:href="#x" transform="matrix(1,0,0,1,285,306.5) translate(5.574999999999996 17.1)"/><use xlink:href="#y" transform="matrix(1,0,0,1,392.92482468394206,306.5) translate(48.55 17.1)"/><path d="M220 428a8 8 0 0 1 8-8h304a8 8 0 0 1 8 8v88a8 8 0 0 1-8 8H228a8 8 0 0 1-8-8z" fill="#fff"/><path d="M220 428a8 8 0 0 1 8-8h304a8 8 0 0 1 8 8v88a8 8 0 0 1-8 8H228a8 8 0 0 1-8-8zM220 460h320M280 460v64M433.24 460v64" stroke="#3a414a" fill="none"/><use xlink:href="#E" transform="matrix(1,0,0,1,230,420) translate(80.55 23.6)"/><use xlink:href="#F" transform="matrix(1,0,0,1,225,462.5) translate(-0.9750000000000014 17.1)"/><use xlink:href="#G" transform="matrix(1,0,0,1,285,462.5) translate(25.549999999999997 17.1)"/><use xlink:href="#j" transform="matrix(1,0,0,1,438.24185803016746,462.5) translate(8.574999999999996 17.1)"/><use xlink:href="#F" transform="matrix(1,0,0,1,225,494.5) translate(-0.9750000000000014 17.1)"/><use xlink:href="#H" transform="matrix(1,0,0,1,285,494.5) translate(30.049999999999997 17.1)"/><use xlink:href="#j" transform="matrix(1,0,0,1,438.24185803016746,494.5) translate(8.574999999999996 17.1)"/><path d="M1200 208a8 8 0 0 1 8-8h274a8 8 0 0 1 8 8v88a8 8 0 0 1-8 8h-274a8 8 0 0 1-8-8z" fill="#fff"/><path d="M1200 208a8 8 0 0 1 8-8h274a8 8 0 0 1 8 8v88a8 8 0 0 1-8 8h-274a8 8 0 0 1-8-8zM1200 240h290M1260 240v64M1375.7 240v64" stroke="#3a414a" fill="none"/><use xlink:href="#I" transform="matrix(1,0,0,1,1210,200) translate(75.57499999999999 23.6)"/><use xlink:href="#F" transform="matrix(1,0,0,1,1205,242.5) translate(-0.9750000000000014 17.1)"/><use xlink:href="#H" transform="matrix(1,0,0,1,1265,242.5) translate(11.049999999999997 17.1)"/><use xlink:href="#j" transform="matrix(1,0,0,1,1380.7020367968767,242.5) translate(12.574999999999996 17.1)"/><use xlink:href="#F" transform="matrix(1,0,0,1,1205,274.5) translate(-0.9750000000000014 17.1)"/><use xlink:href="#J" transform="matrix(1,0,0,1,1265,274.5) translate(16.574999999999996 17.1)"/><use xlink:href="#j" transform="matrix(1,0,0,1,1380.7020367968767,274.5) translate(12.574999999999996 17.1)"/><path d="M1100.42 256h79.72" stroke="#3a414a" fill="none"/><path d="M1100.42 266v-20M1080.42 256h20" stroke="#3a414a" fill="#fff"/><path d="M1199.33 266l-20-10 20-10" stroke="#3a414a" fill="#fff" fill-opacity="0"/><path d="M1199.33 256h-20" stroke="#3a414a" fill="#fff"/><path d="M1500.44 444H1568a12 12 0 0 0 12-12V300a12 12 0 0 0-12-12h-58.1" stroke="#3a414a" fill="none"/><path d="M1500.44 454v-20M1480.44 444h20" stroke="#3a414a" fill="#fff"/><path d="M1490.7 278l20 10-20 10" stroke="#3a414a" fill="#fff" fill-opacity="0"/><path d="M1490.7 288h20" stroke="#3a414a" fill="#fff"/><path d="M699.52 256H662a12 12 0 0 0-12 12v228a12 12 0 0 1-12 12h-78.1" stroke="#3a414a" fill="none"/><path d="M699.52 246v20M719.52 256h-20" stroke="#3a414a" fill="#fff"/><path d="M540.7 498l20 10-20 10" stroke="#3a414a" fill="#fff" fill-opacity="0"/><path d="M540.7 508h20" stroke="#3a414a" fill="#fff"/><path d="M199.54 256h-48a12 12 0 0 0-12 12v196a12 12 0 0 0 12 12h48.6" stroke="#3a414a" fill="none"/><path d="M199.54 246v20M219.54 256h-20" stroke="#3a414a" fill="#fff"/><path d="M219.33 486l-20-10 20-10" stroke="#3a414a" fill="#fff" fill-opacity="0"/><path d="M219.33 476h-20" stroke="#3a414a" fill="#fff"/><path d="M1099.9 512h28.12a12 12 0 0 0 12-12v-44a12 12 0 0 1 12-12h27.52" stroke="#3a414a" fill="none"/><path d="M1080.72 502l20 10-20 10" stroke="#3a414a" fill="#fff" fill-opacity="0"/><path d="M1080.72 512h20M1179.54 434v20M1199.54 444h-20" stroke="#3a414a" fill="#fff"/><path d="M700.17 480H622a12 12 0 0 1-12-12V268a12 12 0 0 0-12-12h-37.56" stroke="#3a414a" fill="none"/><path d="M719.36 490l-20-10 20-10" stroke="#3a414a" fill="#fff" fill-opacity="0"/><path d="M719.36 480h-20M560.44 266v-20M540.44 256h20" stroke="#3a414a" fill="#fff"/><defs><path fill="#a9afb8" d="M115-3C79 11 28 4 28-45v-112H4v-33h27l15-45h31v45h36v33H77v99c-1 23 16 31 38 25v30" id="K"/><path fill="#a9afb8" d="M110-194c64 0 96 36 96 99 0 64-35 99-97 99-61 0-95-36-95-99 0-62 34-99 96-99zm-1 164c35 0 45-28 45-65 0-40-10-65-43-65-34 0-45 26-45 65 0 36 10 65 43 65" id="L"/><path fill="#a9afb8" d="M135-194c52 0 70 43 70 98 0 56-19 99-73 100-30 1-46-15-58-35L72 0H24l1-261h50v104c11-23 29-37 60-37zM114-30c31 0 40-27 40-66 0-37-7-63-39-63s-41 28-41 65c0 36 8 64 40 64" id="M"/><path fill="#a9afb8" d="M25 0v-261h50V0H25" id="N"/><path fill="#a9afb8" d="M133-34C117-15 103 5 69 4 32 3 11-16 11-54c-1-60 55-63 116-61 1-26-3-47-28-47-18 1-26 9-28 27l-52-2c7-38 36-58 82-57s74 22 75 68l1 82c-1 14 12 18 25 15v27c-30 8-71 5-69-32zm-48 3c29 0 43-24 42-57-32 0-66-3-65 30 0 17 8 27 23 27" id="O"/><path fill="#a9afb8" d="M14-72v-43h91v43H14" id="P"/><path fill="#a9afb8" d="M25-224v-37h50v37H25zM25 0v-190h50V0H25" id="Q"/><path fill="#a9afb8" d="M182-182c0 78-84 86-111 141h115V0H12c-6-101 99-100 120-180 1-22-12-31-33-32-23 0-32 14-35 34l-49-3c5-45 32-70 84-70 51 0 83 22 83 69" id="R"/><path fill="#a9afb8" d="M101-251c68 0 84 54 84 127C185-50 166 4 99 4S15-52 14-124c-1-75 17-127 87-127zm-1 216c37-5 36-46 36-89s4-89-36-89c-39 0-36 45-36 89 0 43-3 85 36 89" id="S"/><path fill="#a9afb8" d="M88-194c31-1 46 15 58 34l-1-101h50l1 261h-48c-2-10 0-23-3-31C134-8 116 4 84 4 32 4 16-41 15-95c0-56 19-97 73-99zm17 164c33 0 40-30 41-66 1-37-9-64-41-64s-38 30-39 65c0 43 13 65 39 65" id="T"/><g id="a"><use transform="matrix(0.0728395061728395,0,0,0.0728395061728395,0,0)" xlink:href="#K"/><use transform="matrix(0.0728395061728395,0,0,0.0728395061728395,8.667901234567902,0)" xlink:href="#L"/><use transform="matrix(0.0728395061728395,0,0,0.0728395061728395,24.619753086419752,0)" xlink:href="#M"/><use transform="matrix(0.0728395061728395,0,0,0.0728395061728395,40.571604938271605,0)" xlink:href="#L"/><use transform="matrix(0.0728395061728395,0,0,0.0728395061728395,56.523456790123454,0)" xlink:href="#N"/><use transform="matrix(0.0728395061728395,0,0,0.0728395061728395,63.8074074074074,0)" xlink:href="#O"/><use transform="matrix(0.0728395061728395,0,0,0.0728395061728395,78.37530864197531,0)" xlink:href="#P"/><use transform="matrix(0.0728395061728395,0,0,0.0728395061728395,87.0432098765432,0)" xlink:href="#Q"/><use transform="matrix(0.0728395061728395,0,0,0.0728395061728395,94.32716049382717,0)" xlink:href="#R"/><use transform="matrix(0.0728395061728395,0,0,0.0728395061728395,108.89506172839506,0)" xlink:href="#S"/><use transform="matrix(0.0728395061728395,0,0,0.0728395061728395,123.46296296296296,0)" xlink:href="#P"/><use transform="matrix(0.0728395061728395,0,0,0.0728395061728395,132.13086419753085,0)" xlink:href="#T"/><use transform="matrix(0.0728395061728395,0,0,0.0728395061728395,148.0827160493827,0)" xlink:href="#M"/></g><path fill="#a9afb8" d="M194 0L95-120 63-95V0H30v-248h33v124l119-124h40L117-140 236 0h-42" id="U"/><path fill="#a9afb8" d="M24-231v-30h32v30H24zM24 0v-190h32V0H24" id="V"/><path fill="#a9afb8" d="M114-163C36-179 61-72 57 0H25l-1-190h30c1 12-1 29 2 39 6-27 23-49 58-41v29" id="W"/><path fill="#a9afb8" d="M24 0v-261h32V0H24" id="X"/><g id="b"><use transform="matrix(0.04248971193415638,0,0,0.04248971193415638,0,0)" xlink:href="#U"/><use transform="matrix(0.04248971193415638,0,0,0.04248971193415638,10.19753086419753,0)" xlink:href="#V"/><use transform="matrix(0.04248971193415638,0,0,0.04248971193415638,13.554218106995881,0)" xlink:href="#W"/><use transform="matrix(0.04248971193415638,0,0,0.04248971193415638,18.610493827160493,0)" xlink:href="#V"/><use transform="matrix(0.04248971193415638,0,0,0.04248971193415638,21.967181069958848,0)" xlink:href="#X"/><use transform="matrix(0.04248971193415638,0,0,0.04248971193415638,25.3238683127572,0)" xlink:href="#X"/></g><path fill="#a9afb8" d="M32 76v-337h29V76H32" id="Y"/><use transform="matrix(0.04248971193415638,0,0,0.04248971193415638,0,0)" xlink:href="#Y" id="c"/><path fill="#a9afb8" d="M140-251c81 0 123 46 123 126C263-46 219 4 140 4 59 4 17-45 17-125s42-126 123-126zm0 227c63 0 89-41 89-101s-29-99-89-99c-61 0-89 39-89 99S79-25 140-24" id="Z"/><path fill="#a9afb8" d="M96-169c-40 0-48 33-48 73s9 75 48 75c24 0 41-14 43-38l32 2c-6 37-31 61-74 61-59 0-76-41-82-99-10-93 101-131 147-64 4 7 5 14 7 22l-32 3c-4-21-16-35-41-35" id="aa"/><path fill="#a9afb8" d="M59-47c-2 24 18 29 38 22v24C64 9 27 4 27-40v-127H5v-23h24l9-43h21v43h35v23H59v120" id="ab"/><path fill="#a9afb8" d="M100-194c62-1 85 37 85 99 1 63-27 99-86 99S16-35 15-95c0-66 28-99 85-99zM99-20c44 1 53-31 53-75 0-43-8-75-51-75s-53 32-53 75 10 74 51 75" id="ac"/><path fill="#a9afb8" d="M115-194c53 0 69 39 70 98 0 66-23 100-70 100C84 3 66-7 56-30L54 0H23l1-261h32v101c10-23 28-34 59-34zm-8 174c40 0 45-34 45-75 0-40-5-75-45-74-42 0-51 32-51 76 0 43 10 73 51 73" id="ad"/><path fill="#a9afb8" d="M100-194c63 0 86 42 84 106H49c0 40 14 67 53 68 26 1 43-12 49-29l28 8c-11 28-37 45-77 45C44 4 14-33 15-96c1-61 26-98 85-98zm52 81c6-60-76-77-97-28-3 7-6 17-6 28h103" id="ae"/><g id="d"><use transform="matrix(0.04248971193415638,0,0,0.04248971193415638,0,0)" xlink:href="#Z"/><use transform="matrix(0.04248971193415638,0,0,0.04248971193415638,11.897119341563785,0)" xlink:href="#aa"/><use transform="matrix(0.04248971193415638,0,0,0.04248971193415638,19.545267489711932,0)" xlink:href="#ab"/><use transform="matrix(0.04248971193415638,0,0,0.04248971193415638,23.79423868312757,0)" xlink:href="#ac"/><use transform="matrix(0.04248971193415638,0,0,0.04248971193415638,32.29218106995884,0)" xlink:href="#ad"/><use transform="matrix(0.04248971193415638,0,0,0.04248971193415638,40.79012345679012,0)" xlink:href="#ae"/><use transform="matrix(0.04248971193415638,0,0,0.04248971193415638,49.288065843621396,0)" xlink:href="#W"/></g><path fill="#a9afb8" d="M101-251c82-7 93 87 43 132L82-64C71-53 59-42 53-27h129V0H18c2-99 128-94 128-182 0-28-16-43-45-43s-46 15-49 41l-32-3c6-41 34-60 81-64" id="af"/><path fill="#a9afb8" d="M101-251c68 0 85 55 85 127S166 4 100 4C33 4 14-52 14-124c0-73 17-127 87-127zm-1 229c47 0 54-49 54-102s-4-102-53-102c-51 0-55 48-55 102 0 53 5 102 54 102" id="ag"/><path fill="#a9afb8" d="M68-38c1 34 0 65-14 84H32c9-13 17-26 17-46H33v-38h35" id="ah"/><g id="e"><use transform="matrix(0.04248971193415638,0,0,0.04248971193415638,0,0)" xlink:href="#af"/><use transform="matrix(0.04248971193415638,0,0,0.04248971193415638,8.497942386831275,0)" xlink:href="#ag"/><use transform="matrix(0.04248971193415638,0,0,0.04248971193415638,16.99588477366255,0)" xlink:href="#ah"/></g><g id="f"><use transform="matrix(0.04248971193415638,0,0,0.04248971193415638,0,0)" xlink:href="#af"/><use transform="matrix(0.04248971193415638,0,0,0.04248971193415638,8.497942386831275,0)" xlink:href="#ag"/><use transform="matrix(0.04248971193415638,0,0,0.04248971193415638,16.99588477366255,0)" xlink:href="#af"/><use transform="matrix(0.04248971193415638,0,0,0.04248971193415638,25.493827160493822,0)" xlink:href="#af"/></g><path fill="#3a414a" d="M24-231v-30h32v30H24zM24 0v-190h32V0H24" id="ai"/><path fill="#3a414a" d="M210-169c-67 3-38 105-44 169h-31v-121c0-29-5-50-35-48C34-165 62-65 56 0H25l-1-190h30c1 10-1 24 2 32 10-44 99-50 107 0 11-21 27-35 58-36 85-2 47 119 55 194h-31v-121c0-29-5-49-35-48" id="aj"/><path fill="#3a414a" d="M141-36C126-15 110 5 73 4 37 3 15-17 15-53c-1-64 63-63 125-63 3-35-9-54-41-54-24 1-41 7-42 31l-33-3c5-37 33-52 76-52 45 0 72 20 72 64v82c-1 20 7 32 28 27v20c-31 9-61-2-59-35zM48-53c0 20 12 33 32 33 41-3 63-29 60-74-43 2-92-5-92 41" id="ak"/><path fill="#3a414a" d="M177-190C167-65 218 103 67 71c-23-6-38-20-44-43l32-5c15 47 100 32 89-28v-30C133-14 115 1 83 1 29 1 15-40 15-95c0-56 16-97 71-98 29-1 48 16 59 35 1-10 0-23 2-32h30zM94-22c36 0 50-32 50-73 0-42-14-75-50-75-39 0-46 34-46 75s6 73 46 73" id="al"/><path fill="#3a414a" d="M100-194c63 0 86 42 84 106H49c0 40 14 67 53 68 26 1 43-12 49-29l28 8c-11 28-37 45-77 45C44 4 14-33 15-96c1-61 26-98 85-98zm52 81c6-60-76-77-97-28-3 7-6 17-6 28h103" id="am"/><path fill="#3a414a" d="M135-143c-3-34-86-38-87 0 15 53 115 12 119 90S17 21 10-45l28-5c4 36 97 45 98 0-10-56-113-15-118-90-4-57 82-63 122-42 12 7 21 19 24 35" id="an"/><g id="g"><use transform="matrix(0.05,0,0,0.05,0,0)" xlink:href="#ai"/><use transform="matrix(0.05,0,0,0.05,3.95,0)" xlink:href="#aj"/><use transform="matrix(0.05,0,0,0.05,18.900000000000002,0)" xlink:href="#ak"/><use transform="matrix(0.05,0,0,0.05,28.900000000000002,0)" xlink:href="#al"/><use transform="matrix(0.05,0,0,0.05,38.900000000000006,0)" xlink:href="#am"/><use transform="matrix(0.05,0,0,0.05,48.900000000000006,0)" xlink:href="#an"/></g><path fill="#3a414a" d="M30-248c87 1 191-15 191 75 0 78-77 80-158 76V0H30v-248zm33 125c57 0 124 11 124-50 0-59-68-47-124-48v98" id="ao"/><path fill="#3a414a" d="M194 0L95-120 63-95V0H30v-248h33v124l119-124h40L117-140 236 0h-42" id="ap"/><g id="h"><use transform="matrix(0.05,0,0,0.05,0,0)" xlink:href="#ao"/><use transform="matrix(0.05,0,0,0.05,12,0)" xlink:href="#ap"/></g><path fill="#3a414a" d="M85-194c31 0 48 13 60 33l-1-100h32l1 261h-30c-2-10 0-23-3-31C134-8 116 4 85 4 32 4 16-35 15-94c0-66 23-100 70-100zm9 24c-40 0-46 34-46 75 0 40 6 74 45 74 42 0 51-32 51-76 0-42-9-74-50-73" id="aq"/><g id="i"><use transform="matrix(0.05,0,0,0.05,0,0)" xlink:href="#ai"/><use transform="matrix(0.05,0,0,0.05,3.95,0)" xlink:href="#aq"/></g><path fill="#3a414a" d="M33 0v-248h34V0H33" id="ar"/><path fill="#3a414a" d="M190 0L58-211 59 0H30v-248h39L202-35l-2-213h31V0h-41" id="as"/><path fill="#3a414a" d="M127-220V0H93v-220H8v-28h204v28h-85" id="at"/><path fill="#3a414a" d="M30 0v-248h187v28H63v79h144v27H63v87h162V0H30" id="au"/><path fill="#3a414a" d="M143 4C61 4 22-44 18-125c-5-107 100-154 193-111 17 8 29 25 37 43l-32 9c-13-25-37-40-76-40-61 0-88 39-88 99 0 61 29 100 91 101 35 0 62-11 79-27v-45h-74v-28h105v86C228-13 192 4 143 4" id="av"/><path fill="#3a414a" d="M233-177c-1 41-23 64-60 70L243 0h-38l-65-103H63V0H30v-248c88 3 205-21 203 71zM63-129c60-2 137 13 137-47 0-61-80-42-137-45v92" id="aw"/><g id="j"><use transform="matrix(0.05,0,0,0.05,0,0)" xlink:href="#ar"/><use transform="matrix(0.05,0,0,0.05,5,0)" xlink:href="#as"/><use transform="matrix(0.05,0,0,0.05,17.950000000000003,0)" xlink:href="#at"/><use transform="matrix(0.05,0,0,0.05,28.900000000000006,0)" xlink:href="#au"/><use transform="matrix(0.05,0,0,0.05,40.900000000000006,0)" xlink:href="#av"/><use transform="matrix(0.05,0,0,0.05,54.900000000000006,0)" xlink:href="#au"/><use transform="matrix(0.05,0,0,0.05,66.9,0)" xlink:href="#aw"/></g><path fill="#3a414a" d="M84 4C-5 8 30-112 23-190h32v120c0 31 7 50 39 49 72-2 45-101 50-169h31l1 190h-30c-1-10 1-25-2-33-11 22-28 36-60 37" id="ax"/><path fill="#3a414a" d="M114-163C36-179 61-72 57 0H25l-1-190h30c1 12-1 29 2 39 6-27 23-49 58-41v29" id="ay"/><path fill="#3a414a" d="M24 0v-261h32V0H24" id="az"/><g id="k"><use transform="matrix(0.05,0,0,0.05,0,0)" xlink:href="#ax"/><use transform="matrix(0.05,0,0,0.05,10,0)" xlink:href="#ay"/><use transform="matrix(0.05,0,0,0.05,15.949999999999998,0)" xlink:href="#az"/></g><path fill="#3a414a" d="M137 0h-34L2-248h35l83 218 83-218h36" id="aA"/><path fill="#3a414a" d="M205 0l-28-72H64L36 0H1l101-248h38L239 0h-34zm-38-99l-47-123c-12 45-31 82-46 123h93" id="aB"/><path fill="#3a414a" d="M212-179c-10-28-35-45-73-45-59 0-87 40-87 99 0 60 29 101 89 101 43 0 62-24 78-52l27 14C228-24 195 4 139 4 59 4 22-46 18-125c-6-104 99-153 187-111 19 9 31 26 39 46" id="aC"/><path fill="#3a414a" d="M197 0v-115H63V0H30v-248h33v105h134v-105h34V0h-34" id="aD"/><path fill="#3a414a" d="M87 75C49 33 22-17 22-94c0-76 28-126 65-167h31c-38 41-64 92-64 168S80 34 118 75H87" id="aE"/><path fill="#3a414a" d="M101-251c82-7 93 87 43 132L82-64C71-53 59-42 53-27h129V0H18c2-99 128-94 128-182 0-28-16-43-45-43s-46 15-49 41l-32-3c6-41 34-60 81-64" id="aF"/><path fill="#3a414a" d="M101-251c68 0 85 55 85 127S166 4 100 4C33 4 14-52 14-124c0-73 17-127 87-127zm-1 229c47 0 54-49 54-102s-4-102-53-102c-51 0-55 48-55 102 0 53 5 102 54 102" id="aG"/><path fill="#3a414a" d="M134-131c28 9 52 24 51 62-1 50-34 73-85 73S17-19 16-69c0-36 21-54 49-61-75-25-45-126 34-121 46 3 78 18 79 63 0 33-17 51-44 57zm-34-11c31 1 46-15 46-44 0-28-17-43-47-42-29 0-46 13-45 42 1 28 16 44 46 44zm1 122c35 0 51-18 51-52 0-30-18-46-53-46-33 0-51 17-51 47 0 34 19 51 53 51" id="aH"/><path fill="#3a414a" d="M126-127c33 6 58 20 58 59 0 88-139 92-164 29-3-8-5-16-6-25l32-3c6 27 21 44 54 44 32 0 52-15 52-46 0-38-36-46-79-43v-28c39 1 72-4 72-42 0-27-17-43-46-43-28 0-47 15-49 41l-32-3c6-42 35-63 81-64 48-1 79 21 79 65 0 36-21 52-52 59" id="aI"/><path fill="#3a414a" d="M33-261c38 41 65 92 65 168S71 34 33 75H2C39 34 66-17 66-93S39-220 2-261h31" id="aJ"/><g id="l"><use transform="matrix(0.05,0,0,0.05,0,0)" xlink:href="#aA"/><use transform="matrix(0.05,0,0,0.05,10.65,0)" xlink:href="#aB"/><use transform="matrix(0.05,0,0,0.05,22.65,0)" xlink:href="#aw"/><use transform="matrix(0.05,0,0,0.05,35.6,0)" xlink:href="#aC"/><use transform="matrix(0.05,0,0,0.05,48.550000000000004,0)" xlink:href="#aD"/><use transform="matrix(0.05,0,0,0.05,61.5,0)" xlink:href="#aB"/><use transform="matrix(0.05,0,0,0.05,73.5,0)" xlink:href="#aw"/><use transform="matrix(0.05,0,0,0.05,86.45,0)" xlink:href="#aE"/><use transform="matrix(0.05,0,0,0.05,92.4,0)" xlink:href="#aF"/><use transform="matrix(0.05,0,0,0.05,102.4,0)" xlink:href="#aG"/><use transform="matrix(0.05,0,0,0.05,112.4,0)" xlink:href="#aH"/><use transform="matrix(0.05,0,0,0.05,122.4,0)" xlink:href="#aI"/><use transform="matrix(0.05,0,0,0.05,132.4,0)" xlink:href="#aJ"/></g><path fill="#3a414a" d="M59-47c-2 24 18 29 38 22v24C64 9 27 4 27-40v-127H5v-23h24l9-43h21v43h35v23H59v120" id="aK"/><g id="m"><use transform="matrix(0.05,0,0,0.05,0,0)" xlink:href="#ak"/><use transform="matrix(0.05,0,0,0.05,10,0)" xlink:href="#az"/><use transform="matrix(0.05,0,0,0.05,13.949999999999998,0)" xlink:href="#aK"/></g><path fill="#3a414a" d="M108 0H70L1-190h34L89-25l56-165h34" id="aL"/><path fill="#3a414a" d="M96-169c-40 0-48 33-48 73s9 75 48 75c24 0 41-14 43-38l32 2c-6 37-31 61-74 61-59 0-76-41-82-99-10-93 101-131 147-64 4 7 5 14 7 22l-32 3c-4-21-16-35-41-35" id="aM"/><path fill="#3a414a" d="M106-169C34-169 62-67 57 0H25v-261h32l-1 103c12-21 28-36 61-36 89 0 53 116 60 194h-32v-121c2-32-8-49-39-48" id="aN"/><path fill="#3a414a" d="M110-160c48 1 74 30 74 79 0 53-28 85-80 85-65 0-83-55-86-122-5-90 50-162 133-122 14 7 22 21 27 39l-31 6c-5-40-67-38-82-6-9 19-15 44-15 74 11-20 30-34 60-33zm-7 138c34 0 49-23 49-58s-16-56-50-56c-29 0-50 16-49 49 1 36 15 65 50 65" id="aO"/><path fill="#3a414a" d="M155-56V0h-30v-56H8v-25l114-167h33v167h35v25h-35zm-30-156c-27 46-58 90-88 131h88v-131" id="aP"/><g id="n"><use transform="matrix(0.05,0,0,0.05,0,0)" xlink:href="#aL"/><use transform="matrix(0.05,0,0,0.05,9,0)" xlink:href="#ak"/><use transform="matrix(0.05,0,0,0.05,19,0)" xlink:href="#ay"/><use transform="matrix(0.05,0,0,0.05,24.95,0)" xlink:href="#aM"/><use transform="matrix(0.05,0,0,0.05,33.95,0)" xlink:href="#aN"/><use transform="matrix(0.05,0,0,0.05,43.95,0)" xlink:href="#ak"/><use transform="matrix(0.05,0,0,0.05,53.95,0)" xlink:href="#ay"/><use transform="matrix(0.05,0,0,0.05,59.900000000000006,0)" xlink:href="#aE"/><use transform="matrix(0.05,0,0,0.05,65.85000000000001,0)" xlink:href="#aO"/><use transform="matrix(0.05,0,0,0.05,75.85000000000001,0)" xlink:href="#aP"/><use transform="matrix(0.05,0,0,0.05,85.85000000000001,0)" xlink:href="#aJ"/></g><path fill="#3a414a" d="M115-194c55 1 70 41 70 98S169 2 115 4C84 4 66-9 55-30l1 105H24l-1-265h31l2 30c10-21 28-34 59-34zm-8 174c40 0 45-34 45-75s-6-73-45-74c-42 0-51 32-51 76 0 43 10 73 51 73" id="aQ"/><path fill="#3a414a" d="M100-194c62-1 85 37 85 99 1 63-27 99-86 99S16-35 15-95c0-66 28-99 85-99zM99-20c44 1 53-31 53-75 0-43-8-75-51-75s-53 32-53 75 10 74 51 75" id="aR"/><g id="o"><use transform="matrix(0.05,0,0,0.05,0,0)" xlink:href="#aQ"/><use transform="matrix(0.05,0,0,0.05,10,0)" xlink:href="#ay"/><use transform="matrix(0.05,0,0,0.05,15.949999999999998,0)" xlink:href="#aR"/><use transform="matrix(0.05,0,0,0.05,25.950000000000003,0)" xlink:href="#aq"/><use transform="matrix(0.05,0,0,0.05,35.95,0)" xlink:href="#ax"/><use transform="matrix(0.05,0,0,0.05,45.95,0)" xlink:href="#aM"/><use transform="matrix(0.05,0,0,0.05,54.95,0)" xlink:href="#aK"/><use transform="matrix(0.05,0,0,0.05,59.95,0)" xlink:href="#an"/></g><g id="p"><use transform="matrix(0.05,0,0,0.05,0,0)" xlink:href="#ak"/><use transform="matrix(0.05,0,0,0.05,10,0)" xlink:href="#aM"/><use transform="matrix(0.05,0,0,0.05,19,0)" xlink:href="#aK"/><use transform="matrix(0.05,0,0,0.05,24,0)" xlink:href="#ai"/><use transform="matrix(0.05,0,0,0.05,27.950000000000003,0)" xlink:href="#aL"/><use transform="matrix(0.05,0,0,0.05,36.95,0)" xlink:href="#am"/></g><path fill="#3a414a" d="M160-131c35 5 61 23 61 61C221 17 115-2 30 0v-248c76 3 177-17 177 60 0 33-19 50-47 57zm-97-11c50-1 110 9 110-42 0-47-63-36-110-37v79zm0 115c55-2 124 14 124-45 0-56-70-42-124-44v89" id="aS"/><path fill="#3a414a" d="M140-251c81 0 123 46 123 126C263-46 219 4 140 4 59 4 17-45 17-125s42-126 123-126zm0 227c63 0 89-41 89-101s-29-99-89-99c-61 0-89 39-89 99S79-25 140-24" id="aT"/><path fill="#3a414a" d="M30 0v-248h33v221h125V0H30" id="aU"/><g id="q"><use transform="matrix(0.05,0,0,0.05,0,0)" xlink:href="#aS"/><use transform="matrix(0.05,0,0,0.05,12,0)" xlink:href="#aT"/><use transform="matrix(0.05,0,0,0.05,26,0)" xlink:href="#aT"/><use transform="matrix(0.05,0,0,0.05,40,0)" xlink:href="#aU"/><use transform="matrix(0.05,0,0,0.05,50,0)" xlink:href="#au"/><use transform="matrix(0.05,0,0,0.05,62,0)" xlink:href="#aB"/><use transform="matrix(0.05,0,0,0.05,74,0)" xlink:href="#as"/></g><g id="r"><use transform="matrix(0.05,0,0,0.05,0,0)" xlink:href="#aK"/><use transform="matrix(0.05,0,0,0.05,5,0)" xlink:href="#ai"/><use transform="matrix(0.05,0,0,0.05,8.95,0)" xlink:href="#aK"/><use transform="matrix(0.05,0,0,0.05,13.949999999999998,0)" xlink:href="#az"/><use transform="matrix(0.05,0,0,0.05,17.9,0)" xlink:href="#am"/></g><g id="s"><use transform="matrix(0.05,0,0,0.05,0,0)" xlink:href="#aA"/><use transform="matrix(0.05,0,0,0.05,10.65,0)" xlink:href="#aB"/><use transform="matrix(0.05,0,0,0.05,22.65,0)" xlink:href="#aw"/><use transform="matrix(0.05,0,0,0.05,35.6,0)" xlink:href="#aC"/><use transform="matrix(0.05,0,0,0.05,48.550000000000004,0)" xlink:href="#aD"/><use transform="matrix(0.05,0,0,0.05,61.5,0)" xlink:href="#aB"/><use transform="matrix(0.05,0,0,0.05,73.5,0)" xlink:href="#aw"/><use transform="matrix(0.05,0,0,0.05,86.45,0)" xlink:href="#aE"/><use transform="matrix(0.05,0,0,0.05,92.4,0)" xlink:href="#aO"/><use transform="matrix(0.05,0,0,0.05,102.4,0)" xlink:href="#aP"/><use transform="matrix(0.05,0,0,0.05,112.4,0)" xlink:href="#aJ"/></g><path fill="#3a414a" d="M-5 72V49h209v23H-5" id="aV"/><path fill="#3a414a" d="M117-194c89-4 53 116 60 194h-32v-121c0-31-8-49-39-48C34-167 62-67 57 0H25l-1-190h30c1 10-1 24 2 32 11-22 29-35 61-36" id="aW"/><g id="t"><use transform="matrix(0.05,0,0,0.05,0,0)" xlink:href="#aQ"/><use transform="matrix(0.05,0,0,0.05,10,0)" xlink:href="#ay"/><use transform="matrix(0.05,0,0,0.05,15.949999999999998,0)" xlink:href="#ai"/><use transform="matrix(0.05,0,0,0.05,19.9,0)" xlink:href="#aM"/><use transform="matrix(0.05,0,0,0.05,28.899999999999995,0)" xlink:href="#am"/><use transform="matrix(0.05,0,0,0.05,38.9,0)" xlink:href="#aV"/><use transform="matrix(0.05,0,0,0.05,48.9,0)" xlink:href="#aq"/><use transform="matrix(0.05,0,0,0.05,58.900000000000006,0)" xlink:href="#ai"/><use transform="matrix(0.05,0,0,0.05,62.85,0)" xlink:href="#an"/><use transform="matrix(0.05,0,0,0.05,71.85,0)" xlink:href="#aM"/><use transform="matrix(0.05,0,0,0.05,80.85,0)" xlink:href="#aR"/><use transform="matrix(0.05,0,0,0.05,90.85,0)" xlink:href="#ax"/><use transform="matrix(0.05,0,0,0.05,100.85,0)" xlink:href="#aW"/><use transform="matrix(0.05,0,0,0.05,110.84999999999998,0)" xlink:href="#aK"/></g><path fill="#3a414a" d="M63-220v92h138v28H63V0H30v-248h175v28H63" id="aX"/><g id="u"><use transform="matrix(0.05,0,0,0.05,0,0)" xlink:href="#aX"/><use transform="matrix(0.05,0,0,0.05,10.950000000000001,0)" xlink:href="#aU"/><use transform="matrix(0.05,0,0,0.05,20.950000000000003,0)" xlink:href="#aT"/><use transform="matrix(0.05,0,0,0.05,34.95,0)" xlink:href="#aB"/><use transform="matrix(0.05,0,0,0.05,45.6,0)" xlink:href="#at"/></g><g id="v"><use transform="matrix(0.05,0,0,0.05,0,0)" xlink:href="#aQ"/><use transform="matrix(0.05,0,0,0.05,10,0)" xlink:href="#ay"/><use transform="matrix(0.05,0,0,0.05,15.949999999999998,0)" xlink:href="#ai"/><use transform="matrix(0.05,0,0,0.05,19.9,0)" xlink:href="#aM"/><use transform="matrix(0.05,0,0,0.05,28.899999999999995,0)" xlink:href="#am"/></g><g id="w"><use transform="matrix(0.05,0,0,0.05,0,0)" xlink:href="#aQ"/><use transform="matrix(0.05,0,0,0.05,10,0)" xlink:href="#ay"/><use transform="matrix(0.05,0,0,0.05,15.949999999999998,0)" xlink:href="#ai"/><use transform="matrix(0.05,0,0,0.05,19.9,0)" xlink:href="#aM"/><use transform="matrix(0.05,0,0,0.05,28.899999999999995,0)" xlink:href="#am"/><use transform="matrix(0.05,0,0,0.05,38.9,0)" xlink:href="#aV"/><use transform="matrix(0.05,0,0,0.05,48.9,0)" xlink:href="#aQ"/><use transform="matrix(0.05,0,0,0.05,58.900000000000006,0)" xlink:href="#ay"/><use transform="matrix(0.05,0,0,0.05,64.85,0)" xlink:href="#aR"/><use transform="matrix(0.05,0,0,0.05,74.85,0)" xlink:href="#aj"/><use transform="matrix(0.05,0,0,0.05,89.8,0)" xlink:href="#aR"/></g><g id="x"><use transform="matrix(0.05,0,0,0.05,0,0)" xlink:href="#aq"/><use transform="matrix(0.05,0,0,0.05,10,0)" xlink:href="#am"/><use transform="matrix(0.05,0,0,0.05,20,0)" xlink:href="#an"/><use transform="matrix(0.05,0,0,0.05,29,0)" xlink:href="#aM"/><use transform="matrix(0.05,0,0,0.05,38,0)" xlink:href="#ay"/><use transform="matrix(0.05,0,0,0.05,43.95,0)" xlink:href="#ai"/><use transform="matrix(0.05,0,0,0.05,47.900000000000006,0)" xlink:href="#aQ"/><use transform="matrix(0.05,0,0,0.05,57.900000000000006,0)" xlink:href="#aK"/><use transform="matrix(0.05,0,0,0.05,62.900000000000006,0)" xlink:href="#ai"/><use transform="matrix(0.05,0,0,0.05,66.85000000000001,0)" xlink:href="#aR"/><use transform="matrix(0.05,0,0,0.05,76.85000000000001,0)" xlink:href="#aW"/></g><path fill="#3a414a" d="M195 0l-74-108L45 0H8l94-129-87-119h37l69 98 67-98h37l-84 118L233 0h-38" id="aY"/><g id="y"><use transform="matrix(0.05,0,0,0.05,0,0)" xlink:href="#at"/><use transform="matrix(0.05,0,0,0.05,10.950000000000001,0)" xlink:href="#au"/><use transform="matrix(0.05,0,0,0.05,22.950000000000003,0)" xlink:href="#aY"/><use transform="matrix(0.05,0,0,0.05,34.95,0)" xlink:href="#at"/></g><g id="z"><use transform="matrix(0.05,0,0,0.05,0,0)" xlink:href="#aX"/><use transform="matrix(0.05,0,0,0.05,10.950000000000001,0)" xlink:href="#ap"/></g><path fill="#3a414a" d="M179-190L93 31C79 59 56 82 12 73V49c39 6 53-20 64-50L1-190h34L92-34l54-156h33" id="aZ"/><g id="A"><use transform="matrix(0.05,0,0,0.05,0,0)" xlink:href="#aj"/><use transform="matrix(0.05,0,0,0.05,14.950000000000001,0)" xlink:href="#ak"/><use transform="matrix(0.05,0,0,0.05,24.950000000000003,0)" xlink:href="#ai"/><use transform="matrix(0.05,0,0,0.05,28.900000000000002,0)" xlink:href="#aW"/><use transform="matrix(0.05,0,0,0.05,38.900000000000006,0)" xlink:href="#aV"/><use transform="matrix(0.05,0,0,0.05,48.900000000000006,0)" xlink:href="#aM"/><use transform="matrix(0.05,0,0,0.05,57.900000000000006,0)" xlink:href="#ak"/><use transform="matrix(0.05,0,0,0.05,67.9,0)" xlink:href="#aK"/><use transform="matrix(0.05,0,0,0.05,72.9,0)" xlink:href="#am"/><use transform="matrix(0.05,0,0,0.05,82.9,0)" xlink:href="#al"/><use transform="matrix(0.05,0,0,0.05,92.9,0)" xlink:href="#aR"/><use transform="matrix(0.05,0,0,0.05,102.9,0)" xlink:href="#ay"/><use transform="matrix(0.05,0,0,0.05,108.85000000000001,0)" xlink:href="#aZ"/><use transform="matrix(0.05,0,0,0.05,117.85000000000001,0)" xlink:href="#aV"/><use transform="matrix(0.05,0,0,0.05,127.85000000000001,0)" xlink:href="#ai"/><use transform="matrix(0.05,0,0,0.05,131.8,0)" xlink:href="#aq"/></g><g id="B"><use transform="matrix(0.05,0,0,0.05,0,0)" xlink:href="#ar"/><use transform="matrix(0.05,0,0,0.05,5,0)" xlink:href="#as"/><use transform="matrix(0.05,0,0,0.05,17.950000000000003,0)" xlink:href="#at"/><use transform="matrix(0.05,0,0,0.05,28.900000000000006,0)" xlink:href="#au"/><use transform="matrix(0.05,0,0,0.05,40.900000000000006,0)" xlink:href="#av"/><use transform="matrix(0.05,0,0,0.05,54.900000000000006,0)" xlink:href="#au"/><use transform="matrix(0.05,0,0,0.05,66.9,0)" xlink:href="#aw"/></g><g id="C"><use transform="matrix(0.05,0,0,0.05,0,0)" xlink:href="#aj"/><use transform="matrix(0.05,0,0,0.05,14.950000000000001,0)" xlink:href="#ak"/><use transform="matrix(0.05,0,0,0.05,24.950000000000003,0)" xlink:href="#ai"/><use transform="matrix(0.05,0,0,0.05,28.900000000000002,0)" xlink:href="#aW"/><use transform="matrix(0.05,0,0,0.05,38.900000000000006,0)" xlink:href="#aV"/><use transform="matrix(0.05,0,0,0.05,48.900000000000006,0)" xlink:href="#ai"/><use transform="matrix(0.05,0,0,0.05,52.85,0)" xlink:href="#aj"/><use transform="matrix(0.05,0,0,0.05,67.80000000000001,0)" xlink:href="#ak"/><use transform="matrix(0.05,0,0,0.05,77.80000000000001,0)" xlink:href="#al"/><use transform="matrix(0.05,0,0,0.05,87.80000000000001,0)" xlink:href="#am"/><use transform="matrix(0.05,0,0,0.05,97.80000000000001,0)" xlink:href="#aV"/><use transform="matrix(0.05,0,0,0.05,107.80000000000001,0)" xlink:href="#ai"/><use transform="matrix(0.05,0,0,0.05,111.75,0)" xlink:href="#aq"/></g><g id="D"><use transform="matrix(0.05,0,0,0.05,0,0)" xlink:href="#aM"/><use transform="matrix(0.05,0,0,0.05,9,0)" xlink:href="#ak"/><use transform="matrix(0.05,0,0,0.05,19,0)" xlink:href="#aK"/><use transform="matrix(0.05,0,0,0.05,24,0)" xlink:href="#am"/><use transform="matrix(0.05,0,0,0.05,34,0)" xlink:href="#al"/><use transform="matrix(0.05,0,0,0.05,44,0)" xlink:href="#aR"/><use transform="matrix(0.05,0,0,0.05,54,0)" xlink:href="#ay"/><use transform="matrix(0.05,0,0,0.05,59.95,0)" xlink:href="#ai"/><use transform="matrix(0.05,0,0,0.05,63.900000000000006,0)" xlink:href="#am"/><use transform="matrix(0.05,0,0,0.05,73.9,0)" xlink:href="#an"/></g><g id="E"><use transform="matrix(0.05,0,0,0.05,0,0)" xlink:href="#aM"/><use transform="matrix(0.05,0,0,0.05,9,0)" xlink:href="#ak"/><use transform="matrix(0.05,0,0,0.05,19,0)" xlink:href="#aK"/><use transform="matrix(0.05,0,0,0.05,24,0)" xlink:href="#am"/><use transform="matrix(0.05,0,0,0.05,34,0)" xlink:href="#al"/><use transform="matrix(0.05,0,0,0.05,44,0)" xlink:href="#aR"/><use transform="matrix(0.05,0,0,0.05,54,0)" xlink:href="#ay"/><use transform="matrix(0.05,0,0,0.05,59.95,0)" xlink:href="#aZ"/><use transform="matrix(0.05,0,0,0.05,68.95,0)" xlink:href="#aV"/><use transform="matrix(0.05,0,0,0.05,78.95,0)" xlink:href="#aQ"/><use transform="matrix(0.05,0,0,0.05,88.95,0)" xlink:href="#ay"/><use transform="matrix(0.05,0,0,0.05,94.9,0)" xlink:href="#aR"/><use transform="matrix(0.05,0,0,0.05,104.9,0)" xlink:href="#aq"/><use transform="matrix(0.05,0,0,0.05,114.9,0)" xlink:href="#ax"/><use transform="matrix(0.05,0,0,0.05,124.9,0)" xlink:href="#aM"/><use transform="matrix(0.05,0,0,0.05,133.9,0)" xlink:href="#aK"/></g><path fill="#3a414a" d="M0 4l72-265h28L28 4H0" id="ba"/><g id="F"><use transform="matrix(0.05,0,0,0.05,0,0)" xlink:href="#ao"/><use transform="matrix(0.05,0,0,0.05,12,0)" xlink:href="#ap"/><use transform="matrix(0.05,0,0,0.05,24,0)" xlink:href="#ba"/><use transform="matrix(0.05,0,0,0.05,29,0)" xlink:href="#aX"/><use transform="matrix(0.05,0,0,0.05,39.95,0)" xlink:href="#ap"/></g><g id="G"><use transform="matrix(0.05,0,0,0.05,0,0)" xlink:href="#aM"/><use transform="matrix(0.05,0,0,0.05,9,0)" xlink:href="#ak"/><use transform="matrix(0.05,0,0,0.05,19,0)" xlink:href="#aK"/><use transform="matrix(0.05,0,0,0.05,24,0)" xlink:href="#am"/><use transform="matrix(0.05,0,0,0.05,34,0)" xlink:href="#al"/><use transform="matrix(0.05,0,0,0.05,44,0)" xlink:href="#aR"/><use transform="matrix(0.05,0,0,0.05,54,0)" xlink:href="#ay"/><use transform="matrix(0.05,0,0,0.05,59.95,0)" xlink:href="#aZ"/><use transform="matrix(0.05,0,0,0.05,68.95,0)" xlink:href="#aV"/><use transform="matrix(0.05,0,0,0.05,78.95,0)" xlink:href="#ai"/><use transform="matrix(0.05,0,0,0.05,82.9,0)" xlink:href="#aq"/></g><g id="H"><use transform="matrix(0.05,0,0,0.05,0,0)" xlink:href="#aQ"/><use transform="matrix(0.05,0,0,0.05,10,0)" xlink:href="#ay"/><use transform="matrix(0.05,0,0,0.05,15.949999999999998,0)" xlink:href="#aR"/><use transform="matrix(0.05,0,0,0.05,25.950000000000003,0)" xlink:href="#aq"/><use transform="matrix(0.05,0,0,0.05,35.95,0)" xlink:href="#ax"/><use transform="matrix(0.05,0,0,0.05,45.95,0)" xlink:href="#aM"/><use transform="matrix(0.05,0,0,0.05,54.95,0)" xlink:href="#aK"/><use transform="matrix(0.05,0,0,0.05,59.95,0)" xlink:href="#aV"/><use transform="matrix(0.05,0,0,0.05,69.95,0)" xlink:href="#ai"/><use transform="matrix(0.05,0,0,0.05,73.9,0)" xlink:href="#aq"/></g><g id="I"><use transform="matrix(0.05,0,0,0.05,0,0)" xlink:href="#aQ"/><use transform="matrix(0.05,0,0,0.05,10,0)" xlink:href="#ay"/><use transform="matrix(0.05,0,0,0.05,15.949999999999998,0)" xlink:href="#aR"/><use transform="matrix(0.05,0,0,0.05,25.950000000000003,0)" xlink:href="#aq"/><use transform="matrix(0.05,0,0,0.05,35.95,0)" xlink:href="#ax"/><use transform="matrix(0.05,0,0,0.05,45.95,0)" xlink:href="#aM"/><use transform="matrix(0.05,0,0,0.05,54.95,0)" xlink:href="#aK"/><use transform="matrix(0.05,0,0,0.05,59.95,0)" xlink:href="#aV"/><use transform="matrix(0.05,0,0,0.05,69.95,0)" xlink:href="#ai"/><use transform="matrix(0.05,0,0,0.05,73.9,0)" xlink:href="#aj"/><use transform="matrix(0.05,0,0,0.05,88.85000000000001,0)" xlink:href="#ak"/><use transform="matrix(0.05,0,0,0.05,98.85000000000001,0)" xlink:href="#al"/><use transform="matrix(0.05,0,0,0.05,108.85000000000001,0)" xlink:href="#am"/></g><g id="J"><use transform="matrix(0.05,0,0,0.05,0,0)" xlink:href="#ai"/><use transform="matrix(0.05,0,0,0.05,3.95,0)" xlink:href="#aj"/><use transform="matrix(0.05,0,0,0.05,18.900000000000002,0)" xlink:href="#ak"/><use transform="matrix(0.05,0,0,0.05,28.900000000000002,0)" xlink:href="#al"/><use transform="matrix(0.05,0,0,0.05,38.900000000000006,0)" xlink:href="#am"/><use transform="matrix(0.05,0,0,0.05,48.900000000000006,0)" xlink:href="#aV"/><use transform="matrix(0.05,0,0,0.05,58.900000000000006,0)" xlink:href="#ai"/><use transform="matrix(0.05,0,0,0.05,62.85,0)" xlink:href="#aq"/></g></defs></g></svg>